<?xml version="1.0" encoding="UTF-8"?>
<!-- Generated by jsxcad -->
<!DOCTYPE svg PUBLIC "-//W3C//DTD SVG 1.1 Tiny//EN" "http://www.w3.org/Graphics/SVG/1.1/DTD/svg11-tiny.dtd">
<svg baseProfile="tiny" height="10.000000000000007mm" width="9.991889953613288mm" viewBox="0 0 9.991889953613288 10.000000000000007" version="1.1" stroke="black" stroke-width=".1" fill="none" xmlns="http://www.w3.org/2000/svg">
<path fill="#000000" stroke="#000000" d="M4.19389 9.93525 L4.59361 9.98379 L4.99594 10 L5.39828 9.98379 L5.798 9.93525 L6.19252 9.85471 L6.57928 9.74268 L6.95578 9.5999 L7.31956 9.42728 L7.66827 9.22595 L7.99966 8.99721 L8.31156 8.74255 L8.60196 8.46362 L8.86897 8.16223 L9.11086 7.84032 L9.32607 7.5 L9.5132 7.14346 L9.67103 6.77302 L9.79854 6.39109 L9.8949 6.00013 L9.95949 5.60268 L9.99189 5.20133 L9.99189 4.79867 L9.95949 4.39732 L9.8949 3.99987 L9.79854 3.60891 L9.67103 3.22698 L9.5132 2.85654 L9.32607 2.5 L9.11086 2.15968 L8.86897 1.83777 L8.60196 1.53638 L8.31156 1.25745 L7.99966 1.00279 L7.66827 0.77405 L7.31956 0.57272 L6.95578 0.4001 L6.57928 0.25732 L6.19252 0.14529 L5.798 0.06475 L5.39828 0.01621 L4.99594 0 L4.59361 0.01621 L4.19389 0.06475 L3.79937 0.14529 L3.41261 0.25732 L3.03611 0.4001 L2.67233 0.57272 L2.32362 0.77405 L1.99223 1.00279 L1.68033 1.25745 L1.38993 1.53638 L1.12292 1.83777 L0.88103 2.15968 L0.66582 2.5 L0.47869 2.85654 L0.32086 3.22698 L0.19335 3.60891 L0.09699 3.99987 L0.0324 4.39732 L0 4.79867 L0 5.20133 L0.0324 5.60268 L0.09699 6.00013 L0.19335 6.39109 L0.32086 6.77302 L0.47869 7.14346 L0.66582 7.5 L0.88103 7.84032 L1.12292 8.16223 L1.38993 8.46362 L1.68033 8.74255 L1.99223 8.99721 L2.32362 9.22595 L2.67233 9.42728 L3.03611 9.5999 L3.41261 9.74268 L3.79937 9.85471 z"/>
</svg>